<?xml version="1.0" encoding="UTF-8" standalone="no"?>
<!DOCTYPE svg PUBLIC "-//W3C//DTD SVG 1.1//EN" "http://www.w3.org/Graphics/SVG/1.1/DTD/svg11.dtd">
<svg width="100%" height="100%" viewBox="0 0 226 33" version="1.1" xmlns="http://www.w3.org/2000/svg" xmlns:xlink="http://www.w3.org/1999/xlink" xml:space="preserve" xmlns:serif="http://www.serif.com/" style="fill-rule:evenodd;clip-rule:evenodd;stroke-linejoin:round;stroke-miterlimit:2;">
    <g transform="matrix(1,0,0,1,-14.0604,0.657373)">
        <path d="M77.49,21.62L61.2,21.62C61.92,25.49 64.95,27.11 67.75,27.11C70.08,27.11 71.43,26.16 72.71,25.13C73.72,24.31 75.24,24.48 76.01,25.31C76.73,26.1 76.35,27.48 75.38,28.34C73.72,29.86 71.26,30.72 68.06,30.72C61.75,30.72 57.58,25.93 57.58,20.21C57.58,14.49 62.12,10 67.68,9.63C73.93,9.22 78.26,13.81 78.26,18.91C78.26,20.39 77.88,21.62 77.49,21.62ZM61.31,17.97L74.43,17.97C73.99,14.98 71.26,13.12 68.06,13.12C64.95,13.12 62.18,15.15 61.31,17.97Z" style="fill:rgb(10,34,46);fill-rule:nonzero;"/>
    </g>
    <g transform="matrix(1,0,0,1,-14.0604,0.657373)">
        <path d="M111.1,17.51L111.1,28.64C111.1,29.75 110.23,30.43 109.18,30.43C108.03,30.43 107.32,29.61 107.32,28.55L107.32,18.26C107.32,14.95 104.99,13.12 102.53,13.12C99.63,13.12 97.72,15.33 97.72,18.49L97.72,28.53C97.72,29.64 96.78,30.43 95.73,30.43C94.58,30.43 93.82,29.57 93.82,28.5L93.82,18.26C93.82,15.31 91.69,13.12 88.89,13.12C86.09,13.12 84.12,15.33 84.12,18.64L84.12,28.53C84.12,29.64 83.18,30.43 82.18,30.43C81.03,30.43 80.26,29.57 80.26,28.5L80.26,11.71C80.26,10.54 81.16,9.87 82.28,9.87C83.35,9.87 84.04,10.51 84.11,11.54C85.49,10.28 87.39,9.63 89.59,9.63C92.65,9.63 94.78,10.71 96.26,12.71C97.92,10.65 100.05,9.63 102.98,9.63C107.93,9.63 111.1,13.41 111.1,17.51Z" style="fill:rgb(10,34,46);fill-rule:nonzero;"/>
    </g>
    <g transform="matrix(1,0,0,1,-14.0604,0.657373)">
        <path d="M154.6,2.95C160.62,2.95 163.45,7.52 163.45,11.62C163.45,16.51 159.42,20.15 154.64,20.15L147.98,20.15L147.98,28.15C147.98,29.47 147.11,30.29 145.9,30.29C144.74,30.29 143.91,29.36 143.91,28.21L143.91,5.46C143.91,4.01 144.85,2.95 146.26,2.95L154.6,2.95ZM153.77,16.37C157.67,16.37 159.26,14.01 159.26,11.33C159.26,8.49 157.16,6.69 154.26,6.69L147.98,6.69L147.98,16.37L153.77,16.37Z" style="fill:rgb(10,34,46);fill-rule:nonzero;"/>
    </g>
    <g transform="matrix(1,0,0,1,-14.0604,0.657373)">
        <path d="M165.9,21.99L165.9,11.71C165.9,10.54 166.8,9.74 167.89,9.74C169.04,9.74 169.76,10.6 169.76,11.66L169.76,21.39C169.76,24.79 172.22,26.62 174.85,26.62C177.75,26.62 180.01,24.41 180.01,21.25L180.01,11.66C180.01,10.55 180.88,9.74 182.03,9.74C183.12,9.74 183.89,10.6 183.89,11.66L183.89,21.62C183.89,26.82 179.69,30.41 174.85,30.41C169.49,30.41 165.9,26.91 165.9,21.99Z" style="fill:rgb(10,34,46);fill-rule:nonzero;"/>
    </g>
    <g transform="matrix(1,0,0,1,-14.0604,0.657373)">
        <path d="M187.7,27.93C186.94,27.02 186.84,25.36 187.93,24.62C188.97,23.88 189.94,24.31 190.73,25.19C192.05,26.67 193.79,27.31 196.05,27.31C198.08,27.31 199.88,26.33 199.88,25.02C199.88,21.68 187.57,23.3 187.57,15.75C187.57,11.97 191.23,9.66 195.05,9.66C198.12,9.66 200.51,10.63 202.21,12.31C203.18,13.26 203.15,14.6 202.32,15.35C201.45,16.14 200.2,15.86 199.26,14.89C198.11,13.69 196.79,13.26 195.09,13.26C193.5,13.26 191.47,13.95 191.47,15.6C191.47,18.91 203.51,17.48 203.51,24.45C203.51,28.29 199.61,30.55 195.72,30.55C192.89,30.55 189.59,29.78 187.7,27.93Z" style="fill:rgb(10,34,46);fill-rule:nonzero;"/>
    </g>
    <g transform="matrix(1,0,0,1,-14.0604,0.657373)">
        <path d="M224.5,17.91L224.5,28.59C224.5,29.69 223.63,30.49 222.51,30.49C221.36,30.49 220.64,29.58 220.64,28.52L220.64,18.71C220.64,15.4 218.24,13.18 215.54,13.18C212.54,13.18 210.28,15.71 210.28,18.91L210.28,28.56C210.28,29.66 209.35,30.49 208.26,30.49C207.11,30.49 206.35,29.58 206.35,28.52L206.35,4.36C206.35,3.2 207.22,2.37 208.34,2.37C209.53,2.37 210.28,3.34 210.28,4.41L210.28,11.63C211.94,10.06 213.64,9.43 215.87,9.43C220.99,9.43 224.5,13.32 224.5,17.91Z" style="fill:rgb(10,34,46);fill-rule:nonzero;"/>
    </g>
    <g transform="matrix(0.123252,0,0,0.123252,92.4634,1.60969)">
        <path d="M144.5,239C100.17,238.6 60.05,203.45 59.47,152.01C58.91,103.8 96.03,59.08 151.19,59.23C157.16,59.25 163.1,59.75 167.75,61.37L167.08,72.95C160.5,71.04 154.81,70.26 145.08,70.26C101.96,70.26 70.11,104.87 69.32,148.98C68.52,193.93 103.29,227.08 146.98,227.08C176.13,227.08 197.26,212.18 209.91,195.09C220.62,180.56 228.93,166.33 228.38,147.3C227.91,131.9 221.87,117.18 221.28,115.44L228.5,106.71C236.75,118.96 239.03,133.23 239.03,147.81C239.03,186.66 203.95,239.55 144.5,239Z" style="fill:rgb(159,159,159);fill-rule:nonzero;"/>
    </g>
    <g transform="matrix(0.123252,0,0,0.123252,92.4634,1.60969)">
        <path d="M224.1,121.1L165.07,177.86C160.72,181.42 157.17,182.12 153.2,181.59C143.88,180.33 135.87,172.86 135.04,165.89C133.88,155.73 148.88,144.97 155.99,138.44C160.04,141.15 163.88,143.02 170.08,140.07C175.83,137.32 182.07,130.91 184.08,128.27C185.99,125.68 184.92,122.03 181.57,123.27C178.69,124.33 174.52,135.29 166.49,135.29C162.58,135.29 160.07,132.57 160.07,129.14C160.07,122.68 147.18,111.1 142.33,106.84L170.42,79.73C170.89,79.17 170.33,77.31 167.85,73.18L150.95,89.42L149.43,89.04L134.27,72.45L130.48,72.64C129.74,73.66 129.45,75.64 129.48,78.47L129.24,101.15C129.24,102.87 130.58,104.43 132.49,106.15L120.09,118.26L94.7,91.99L90.27,96.79L100.51,107.17C93.29,113.63 89.98,117.74 89.94,124.87C89.89,131.6 93.73,136.17 98.07,139.93L87.59,149.87L70.63,132.77L70.19,142.15L82.81,154.98L70.65,166.62L71.67,171.97L86.56,159.62L110.06,181.92L108.5,183.57L78.16,183.57L80.68,189.67L109.18,189.17C112.05,189.17 113.07,188.23 115.18,187.08L123.21,195.69C124.14,196.98 123.8,203.85 123.8,210.17C123.8,214.92 123.75,218.77 124.58,222.85L130.1,224.57C129.1,222.85 128.76,220.88 128.76,215.98L128.76,196.87C128.76,193.22 127.28,191.57 125.7,189.71L92.3,155.53L119.83,127.5L137.44,146.61C131.77,152.93 128.08,156.05 128.17,165.89C128.27,177.72 140.39,187.75 152.93,188.19C159.45,188.43 162.99,186.21 167.05,183.67L177.19,195.06L148.34,221.4C145.09,223.99 142.66,223.79 139.78,223.2C135.38,222.22 129.19,220.35 129.19,215.46L130.58,224.57C135.18,225.82 138.92,226.27 145.02,226.27C147.95,226.27 149.67,225.67 152.54,223.89L161.12,216.61C163.79,217.85 164.18,221.77 165.24,223.89L171.32,222.17C169.98,218.02 167.64,216.68 165.17,214.3L194.71,187.29L196.05,187.49L207.12,199.77L211.07,194.37L199.39,182.89L215.84,168.08L217.52,168.38L223.77,173.18L226.1,166.67L205.23,146.71L225.62,126.95L224.1,121.1ZM102.6,135.29C98.86,134.04 95.72,128.94 95.72,125.02C95.72,119.12 100.77,115.37 104.51,111.57L116.1,123.05L102.6,135.29ZM136,83.78L145.98,93.62L137.9,101.74L135.7,99.25L136,83.78ZM124.66,123.27L138.16,110.04C139.7,110.04 154.21,126.17 154.21,129.68C154.21,131.3 152,133.02 142.36,141.77L124.66,123.27ZM181.1,189.71L171.11,179.35L200.75,150.58L212.77,163.12L181.1,189.71Z" style="fill:rgb(93,153,246);fill-rule:nonzero;"/>
    </g>
    <g transform="matrix(0.123252,0,0,0.123252,92.4634,1.60969)">
        <path d="M242.4,58.9C242.4,41.07 227.29,23.66 208.09,23.66L207.75,23.66C190.33,23.66 174.53,39.94 174.53,57.04C174.53,61.18 175,64.66 176.43,69.32C182.17,87.29 190.74,114.71 190.74,127.64C190.74,131.59 193.17,134.47 195.28,134.47C197.29,134.47 199.06,132.13 201.73,128.16C207.75,119.86 221.75,100.41 234.84,81.3C239.49,74.68 242.4,67.66 242.4,58.9ZM208.09,78.31C196.21,78.31 188.03,68.58 187.94,59.45C187.79,48.01 197.73,38.76 208.14,38.76L208.43,38.76C219.81,38.76 228.63,49.05 228.72,58.85C228.82,69.17 219.23,78.31 208.09,78.31Z" style="fill:rgb(93,153,246);fill-rule:nonzero;"/>
    </g>
    <g transform="matrix(0.123252,0,0,0.123252,91.4634,0.794376)">
        <path d="M165.2,9.21C157.23,7.06 147.73,6.72 139.7,6.72C96.43,6.72 60.03,28.82 30.1,64.16C28.77,65.88 27.69,67.13 28.77,69.32C29.73,71.41 32.3,72.42 33.97,72.13C36.69,71.64 38.93,68.09 40.84,66.07C67.03,37.1 98.98,16.11 139.31,15.41C148.9,15.21 156.24,15.71 164.41,17.84C168.96,19.03 170.14,16.06 170.43,14.44C171.09,11.16 168.07,9.87 165.2,9.21Z" style="fill:rgb(50,173,43);fill-rule:nonzero;"/>
    </g>
    <g transform="matrix(0.123252,0,0,0.123252,91.4634,0.794376)">
        <path d="M155.2,29.17C150.11,28.08 145.76,27.78 140.07,27.78C105.23,27.78 80.03,43.15 60.15,64.9C57.13,67.92 55.69,68.73 55.69,70.11C55.69,72.08 58.02,74.26 60.15,74.26C62.87,74.26 64.06,72.13 67.31,68.93C86.59,49.48 107.46,38.01 139.14,36.82C144.37,36.63 148.63,36.72 154.02,37.51C157.56,38.11 159.14,35.62 159.43,33.6C159.73,31.26 157.96,29.77 155.2,29.17Z" style="fill:rgb(50,173,43);fill-rule:nonzero;"/>
    </g>
    <g transform="matrix(0.0750537,0.00154823,-0.00168995,0.081924,97.8101,4.36239)">
        <path d="M155.2,29.17C150.11,28.08 145.76,27.78 140.07,27.78C105.23,27.78 80.03,43.15 60.15,64.9C57.13,67.92 55.69,68.73 55.69,70.11C55.69,72.08 58.02,74.26 60.15,74.26C62.87,74.26 64.06,72.13 67.31,68.93C86.59,49.48 107.46,38.01 139.14,36.82C144.37,36.63 148.63,36.72 154.02,37.51C157.56,38.11 159.14,35.62 159.43,33.6C159.73,31.26 157.96,29.77 155.2,29.17Z" style="fill:rgb(50,173,43);fill-rule:nonzero;"/>
    </g>
    <g transform="matrix(1.47143,0,0,1.47143,4.11501,-7.63494)">
        <g transform="matrix(24.7764,0,0,24.7764,26.6389,26)">
        </g>
        <text x="6px" y="26px" style="font-family:'ArialRoundedMTBold', 'Arial Rounded MT Bold', sans-serif;font-size:24.776px;fill:rgb(10,34,46);">M</text>
    </g>
</svg>
