<?xml version="1.0" encoding="UTF-8" standalone="no"?>
<!DOCTYPE svg PUBLIC "-//W3C//DTD SVG 1.1//EN" "http://www.w3.org/Graphics/SVG/1.1/DTD/svg11.dtd">
<svg width="100%" height="100%" viewBox="0 0 1342 368" version="1.1" xmlns="http://www.w3.org/2000/svg" xmlns:xlink="http://www.w3.org/1999/xlink" xml:space="preserve" xmlns:serif="http://www.serif.com/" style="fill-rule:evenodd;clip-rule:evenodd;stroke-linejoin:round;stroke-miterlimit:2;">
    <g transform="matrix(1,0,0,1,-353.502,-832.696)">
        <g transform="matrix(1,0,0,1,1102,854)">
            <path d="M17,78C17.251,67.917 17.913,57.976 15.5,48.125C11.773,36.278 8.09,28.172 -5.266,12.711C-5.855,12.469 -8,10.66 -8,10L-9.559,8.684L-12,7C-19.409,1.712 -26.636,-3.602 -35.418,-6.328L-38,-7C-49.865,-10.204 -64.199,-10.647 -76,-7C-76.34,-6.66 -101.707,2.449 -109.938,13.438C-127.833,32.38 -133.557,52.377 -133,78L-133,91.717L-133.363,91.719C-137.012,91.614 -138.673,91.308 -141.364,88.768C-148.127,77.323 -146.332,59.955 -143.109,47.398C-139.622,36.716 -135.408,26.287 -129,17L-127.527,14.82C-115.206,-2.193 -94.728,-16.764 -73.883,-20.629C-45.283,-23.362 -22.549,-18.055 0,0C16.248,14.148 27.389,34.276 28.896,55.895C29.854,75.292 29.863,78.895 29.863,78.895C29.863,78.895 33.079,93.958 23.25,119.938C17.547,132.185 10.955,144 5.057,156.154C1.703,163.066 -1.448,170.075 -4.5,177.125L-5.395,179.215C-7.036,182.998 -8.854,186.472 -11,190C-12.877,193.902 -28.553,226.484 -34,239C-34.95,240.865 -45.875,262.313 -45.875,262.313C-47.895,266.972 -50.262,271.446 -52.625,275.938L-56.01,282.355C-57,284 -57,284 -59,286C-62.125,285.625 -62.125,285.625 -65,285C-65.475,276.288 -62.994,269.653 -59.023,261.996C-56.832,257.721 -57.644,257.365 -33.938,207.438L-32.644,204.712C-27.46,193.773 0.048,144.798 12.516,109.734C13.04,108.261 19.341,90.542 17,90.71L17,78Z" style="fill:rgb(65,161,159);"/>
        </g>
        <g transform="matrix(1,0,0,1,1053,894)">
            <path d="M-1,2C12.632,6.699 25.496,30.759 9.65,48.522C-2.75,62.423 -6.314,57.813 -24,52C-45.697,31.88 -30.307,11.196 -30,10C-25.851,6.901 -18.087,-0.947 -1,2ZM-5,13C-23.977,9.32 -31.19,35.873 -13.435,41.513C2.606,46.608 16.534,23.97 -5,13Z" style="fill:rgb(65,161,159);"/>
        </g>
        <g transform="matrix(1,0,0,1,1102,854)">
            <path d="M-5,76C-16.967,113.463 -24.555,109.908 -54,164L-62,164C-102.734,90.17 -111.134,92.11 -110.114,59.495C-109.651,44.707 -88.98,15.546 -60.334,13.625C-7.272,10.067 -1.049,63.631 -5,76ZM-33.316,32.281C-58.301,16.329 -97.507,31.577 -96.478,58.782C-95.182,93.034 -61.438,141.526 -60,144L-58,144C-54.315,138.15 -18.812,86.56 -17.931,68.468C-17.078,50.947 -20.151,42.05 -33.316,32.281Z" style="fill:rgb(65,161,159);"/>
        </g>
        <g transform="matrix(1,0,0,1,1253.03,1004.45)">
            <path d="M0,0C8.473,6.661 15.274,13.147 19.535,23.113L20.456,25.248C29.872,47.69 30.103,75.817 21.16,98.488C13.728,116.123 2.541,129.125 -15.145,136.926C-27.632,141.41 -42.599,141.137 -55.027,136.551C-57.734,135.124 -60.329,133.538 -62.926,131.922L-65.007,130.649C-66.684,129.622 -68.356,128.587 -70.027,127.551L-70.014,129.757C-69.974,136.628 -69.943,143.499 -69.924,150.37C-69.913,153.902 -69.899,157.434 -69.876,160.966C-69.851,165.029 -69.841,169.093 -69.832,173.156L-69.801,176.989L-69.8,180.567L-69.787,183.71C-70.178,188.33 -71.162,190.814 -74.707,193.832C-80.092,196.599 -86.186,196.146 -92.098,196.072C-94.155,196.051 -96.209,196.072 -98.266,196.098L-102.223,196.082L-105.817,196.068C-109.634,195.453 -111.291,194.229 -114.027,191.551C-115.488,188.629 -115.197,185.684 -115.215,182.479L-115.239,180.247C-115.264,177.766 -115.282,175.285 -115.3,172.804L-115.349,167.482C-115.493,151.288 -115.568,135.094 -115.628,118.899C-115.672,106.924 -115.749,94.95 -115.869,82.975C-115.951,74.56 -115.994,66.145 -116.009,57.729C-116.019,52.7 -116.046,47.673 -116.115,42.644C-116.179,37.913 -116.196,33.183 -116.177,28.452C-116.178,26.716 -116.196,24.98 -116.233,23.244C-116.496,10.149 -116.496,10.149 -112.896,6.23C-110.301,4.625 -107.906,3.544 -105.027,2.551L-100.141,0.504C-98.544,-0.074 -96.944,-0.642 -95.34,-1.199L-92.908,-2.078C-78.804,-7.121 -78.804,-7.121 -73.027,-6.449C-70.5,-2.658 -70.803,0.36 -70.902,4.738L-70.93,7.01C-70.953,8.857 -70.989,10.704 -71.027,12.551L-68.797,10.723L-65.84,8.301L-62.922,5.91L-60.027,3.551L-57.527,1.418C-41.55,-10.515 -16.457,-11.286 0,0ZM-31.867,17.168C-41.175,11.724 -53.11,13.784 -61.395,20.137C-67.016,25.005 -70.578,30.654 -71.428,38.027L-71.463,41.72C-71.495,43.869 -71.521,46.016 -71.528,48.165C-71.53,49.7 -71.536,51.235 -71.546,52.769C-71.567,55.99 -71.584,59.21 -71.585,62.431C-71.582,66.595 -71.594,70.758 -71.645,74.922C-71.685,78.181 -71.71,81.44 -71.715,84.7C-71.714,86.262 -71.715,87.825 -71.719,89.387C-71.783,93.624 -71.771,97.817 -71.569,102.052C-70.472,109.139 -66.472,113.498 -61.152,117.988C-54.681,122.421 -47.742,123.205 -40.027,122.551C-34.386,120.67 -29.708,116.705 -25.902,112.176C-12.832,93.427 -13.292,67.293 -16.027,45.551C-17.766,34.414 -22.687,24.068 -31.867,17.168Z" style="fill:rgb(25,45,61);"/>
        </g>
        <g transform="matrix(1,0,0,1,840,1005)">
            <path d="M0,0C4.301,4.275 7.683,8.931 11,14C11.75,13.203 12.5,12.407 13.273,11.586C24.732,-0.372 36.326,-7.824 53.388,-8.523C65.32,-8.703 77.037,-6.608 86,2C100.929,17.877 101.478,39.572 101.469,60.039C101.476,62.02 101.484,64 101.492,65.981C101.505,70.097 101.507,74.213 101.501,78.33C101.495,83.598 101.526,88.865 101.566,94.133C101.592,98.208 101.595,102.282 101.591,106.357C101.593,108.301 101.603,110.244 101.62,112.187C101.643,114.896 101.633,117.602 101.615,120.311C101.628,121.106 101.642,121.901 101.655,122.72C101.595,126.723 101.184,129.286 98.688,132.496C95.275,135.676 92.669,135.858 88.215,135.762C87.477,135.765 86.739,135.768 85.978,135.772C84.424,135.772 82.87,135.756 81.316,135.727C78.94,135.688 76.57,135.707 74.193,135.732C72.68,135.725 71.166,135.714 69.652,135.699C68.945,135.706 68.238,135.713 67.509,135.72C64.13,135.624 62.355,135.319 59.813,133.036C57.32,128.861 57.448,125.539 57.502,120.763C57.493,119.379 57.493,119.379 57.485,117.967C57.476,115.967 57.476,113.967 57.484,111.968C57.496,108.797 57.485,105.628 57.468,102.457C57.441,96.865 57.435,91.272 57.437,85.679C57.439,76.742 57.425,67.806 57.381,58.869C57.371,55.755 57.38,52.642 57.39,49.528C57.384,47.604 57.377,45.679 57.369,43.755C57.377,42.897 57.384,42.04 57.392,41.157C57.32,32.516 55.075,24.386 49,18C44.244,14.649 39.642,14.157 34,15C26.986,17.146 22.411,21.7 18.875,28.008C16.199,33.647 15.425,38.277 15.486,44.479C15.479,45.38 15.472,46.28 15.464,47.208C15.445,50.154 15.453,53.1 15.461,56.047C15.451,58.107 15.439,60.167 15.425,62.228C15.393,67.631 15.382,73.034 15.378,78.438C15.37,87.1 15.334,95.761 15.286,104.423C15.274,107.444 15.274,110.464 15.276,113.485C15.27,115.336 15.263,117.187 15.255,119.038C15.262,120.294 15.262,120.294 15.268,121.576C15.239,125.807 15.057,129.182 13,133C8.264,136.647 1.022,135.411 -4.699,135.426C-6.927,135.437 -9.153,135.487 -11.381,135.537C-12.805,135.547 -14.229,135.554 -15.652,135.559C-17.586,135.579 -17.586,135.579 -19.558,135.599C-24.046,134.818 -25.248,133.608 -28,130C-28.715,126.887 -28.66,123.854 -28.612,120.671C-28.617,119.739 -28.623,118.806 -28.629,117.846C-28.642,114.766 -28.622,111.688 -28.602,108.609C-28.607,106.463 -28.615,104.317 -28.626,102.171C-28.649,96.519 -28.644,90.868 -28.632,85.216C-28.614,76.184 -28.624,67.153 -28.658,58.121C-28.664,54.974 -28.651,51.827 -28.636,48.681C-28.639,46.736 -28.643,44.791 -28.647,42.847C-28.638,41.98 -28.628,41.113 -28.619,40.22C-28.672,32.009 -30.642,24.4 -36,18C-39.02,15.636 -42.02,14.196 -45.813,13.438C-53.033,14.712 -60.707,18.848 -65.286,24.621C-69.026,30.055 -69.712,34.224 -69.612,40.733C-69.617,41.672 -69.623,42.612 -69.629,43.579C-69.642,46.661 -69.622,49.742 -69.602,52.824C-69.607,54.976 -69.615,57.127 -69.626,59.278C-69.649,64.927 -69.645,70.575 -69.632,76.223C-69.614,85.274 -69.624,94.325 -69.658,103.375C-69.664,106.534 -69.651,109.691 -69.636,112.85C-69.639,114.785 -69.642,116.72 -69.647,118.655C-69.638,119.532 -69.628,120.408 -69.619,121.311C-69.65,126.025 -69.897,129.198 -73,133C-76.625,135.417 -79.391,135.356 -83.59,135.406C-84.331,135.418 -85.072,135.429 -85.835,135.441C-87.401,135.46 -88.967,135.473 -90.533,135.48C-92.926,135.5 -95.316,135.562 -97.709,135.625C-99.232,135.638 -100.755,135.649 -102.277,135.656C-102.991,135.681 -103.705,135.706 -104.44,135.731C-106.472,135.713 -106.472,135.713 -110,135C-114.972,129.729 -114.581,124.33 -114.549,117.367C-114.56,116.202 -114.57,115.037 -114.58,113.837C-114.608,109.993 -114.606,106.149 -114.602,102.305C-114.607,100.308 -114.613,98.311 -114.62,96.314C-114.643,90.042 -114.643,83.77 -114.631,77.498C-114.619,71.03 -114.644,64.562 -114.686,58.094C-114.722,52.535 -114.734,46.976 -114.727,41.416C-114.724,38.098 -114.731,34.781 -114.757,31.463C-114.781,27.766 -114.768,24.071 -114.745,20.375C-114.76,19.276 -114.775,18.178 -114.791,17.046C-114.752,14.234 -114.671,11.731 -114,9C-111.087,6.353 -111.087,6.353 -108,5C-106.939,4.496 -106.939,4.496 -105.857,3.983C-105.211,3.742 -104.564,3.502 -103.898,3.254C-103.167,2.976 -102.435,2.698 -101.681,2.412C-100.92,2.132 -100.159,1.851 -99.375,1.563C-97.773,0.96 -96.171,0.356 -94.57,-0.25C-93.403,-0.691 -93.403,-0.691 -92.212,-1.141C-88.274,-2.671 -84.423,-4.404 -80.578,-6.152C-77.58,-7.138 -75.137,-7.22 -72,-7C-69.941,-4.941 -70.586,-0.783 -70.438,2.063C-70.394,2.821 -70.351,3.58 -70.307,4.361C-70.2,6.241 -70.1,8.12 -70,10C-67.871,10.232 -67.871,10.232 -66.406,8.461C-65.777,7.773 -65.148,7.084 -64.5,6.375C-48.942,-9.52 -18.047,-15.123 0,0Z" style="fill:rgb(25,45,60);fill-rule:nonzero;"/>
        </g>
        <g transform="matrix(1,0,0,1,462,1001)">
            <path d="M0,0C0.755,0.362 1.511,0.724 2.289,1.098C9.927,5.317 13.956,12.533 18,20C18.389,19.443 18.779,18.886 19.18,18.313C27.529,6.923 38.351,-0.477 52,-4C55.284,-4.416 58.505,-4.478 61.813,-4.438C63.123,-4.426 63.123,-4.426 64.46,-4.415C77.479,-4.084 86.777,0.337 95.688,9.688C107.537,23.912 107.466,41.748 107.434,59.25C107.438,61.398 107.443,63.546 107.449,65.694C107.458,70.172 107.456,74.65 107.446,79.128C107.434,84.87 107.455,90.61 107.484,96.352C107.502,100.776 107.502,105.201 107.496,109.626C107.496,111.744 107.502,113.862 107.515,115.98C107.529,118.931 107.519,121.881 107.502,124.832C107.516,126.143 107.516,126.143 107.531,127.48C107.459,133.375 107.459,133.375 105.156,136.51C99.664,140.304 92.737,139.298 86.322,139.35C84.817,139.367 83.313,139.394 81.809,139.432C79.634,139.487 77.461,139.509 75.285,139.523C73.985,139.543 72.684,139.563 71.344,139.583C68,139 68,139 65.821,137.039C63.321,132.867 63.455,129.57 63.518,124.794C63.514,123.875 63.51,122.956 63.506,122.008C63.5,120.015 63.503,118.022 63.514,116.029C63.531,112.866 63.524,109.704 63.51,106.542C63.48,98.683 63.493,90.825 63.505,82.966C63.513,76.33 63.505,69.694 63.476,63.058C63.469,59.957 63.485,56.856 63.503,53.755C63.509,39.945 63.509,39.945 59,27C58.69,26.296 58.38,25.592 58.06,24.867C56.241,21.663 53.329,20.258 50,19C44.642,17.829 40.647,18.838 35.875,21.438C28.451,26.364 24.252,31.853 22.415,40.508C21.753,44.485 21.716,48.396 21.729,52.419C21.724,53.313 21.718,54.207 21.713,55.128C21.703,57.051 21.697,58.975 21.695,60.898C21.691,63.941 21.675,66.983 21.654,70.026C21.599,78.671 21.568,87.316 21.544,95.961C21.528,101.263 21.498,106.564 21.459,111.865C21.447,113.883 21.441,115.902 21.441,117.92C21.441,120.732 21.423,123.544 21.401,126.357C21.405,127.192 21.41,128.028 21.415,128.888C21.343,134.57 21.343,134.57 19.663,136.675C14.757,140.584 7.298,139.263 1.322,139.295C-0.926,139.312 -3.173,139.356 -5.42,139.4C-6.852,139.411 -8.283,139.419 -9.715,139.426C-11.015,139.44 -12.316,139.455 -13.656,139.47C-17,139 -17,139 -19.179,137.538C-21.883,133.769 -21.542,130.456 -21.482,125.924C-21.486,125.006 -21.49,124.089 -21.494,123.143C-21.5,121.15 -21.497,119.158 -21.486,117.165C-21.469,114.002 -21.476,110.84 -21.49,107.678C-21.52,99.816 -21.507,91.954 -21.495,84.093C-21.487,77.459 -21.495,70.826 -21.524,64.192C-21.531,61.092 -21.515,57.993 -21.497,54.894C-21.499,43.608 -21.718,33.768 -27.938,23.938C-32.988,19.193 -37.147,18.336 -43.93,18.527C-50.812,19.587 -55.281,23.776 -59.438,29.125C-62.18,33.016 -64.254,36.274 -64.238,41.13C-64.242,42.352 -64.242,42.352 -64.246,43.598C-64.235,44.925 -64.235,44.925 -64.224,46.279C-64.224,47.218 -64.224,48.156 -64.225,49.123C-64.225,51.16 -64.221,53.197 -64.213,55.234C-64.203,58.458 -64.208,61.681 -64.219,64.905C-64.247,74.07 -64.259,83.235 -64.23,92.4C-64.213,98.007 -64.226,103.613 -64.256,109.22C-64.263,111.356 -64.258,113.493 -64.242,115.63C-64.22,118.618 -64.235,121.604 -64.259,124.592C-64.243,125.474 -64.228,126.357 -64.212,127.267C-64.31,133.084 -64.31,133.084 -66.257,135.669C-70.149,139.111 -73.657,139.715 -78.664,139.594C-79.379,139.594 -80.093,139.594 -80.829,139.594C-82.33,139.589 -83.831,139.571 -85.332,139.542C-87.626,139.5 -89.917,139.501 -92.211,139.508C-93.674,139.497 -95.138,139.484 -96.602,139.469C-97.284,139.469 -97.966,139.468 -98.669,139.468C-102.778,139.366 -105.059,138.896 -108,136C-108.492,133.694 -108.492,133.694 -108.481,130.932C-108.487,129.884 -108.492,128.837 -108.498,127.758C-108.483,126.609 -108.469,125.46 -108.454,124.277C-108.455,123.067 -108.455,121.857 -108.456,120.61C-108.454,117.292 -108.433,113.975 -108.406,110.657C-108.381,107.189 -108.378,103.722 -108.373,100.255C-108.361,93.688 -108.328,87.123 -108.288,80.557C-108.243,73.081 -108.221,65.606 -108.201,58.131C-108.159,42.754 -108.089,27.377 -108,12C-105.349,10.569 -102.695,9.144 -100.039,7.723C-98.931,7.124 -98.931,7.124 -97.801,6.512C-92.772,3.828 -87.688,1.504 -82.375,-0.563C-81.425,-0.937 -81.425,-0.937 -80.456,-1.319C-76.188,-2.882 -72.526,-3.477 -68,-3C-66.074,-1.98 -66.074,-1.98 -65,0C-64.783,2.65 -64.716,5.051 -64.813,7.688C-64.833,8.74 -64.833,8.74 -64.854,9.814C-64.889,11.543 -64.943,13.272 -65,15C-60.728,11.822 -56.493,8.609 -52.313,5.313C-37.776,-5.917 -16.766,-8.066 0,0Z" style="fill:rgb(23,43,59);fill-rule:nonzero;"/>
        </g>
        <g transform="matrix(1,0,0,1,1601,934)">
            <path d="M0,0C2.619,2.405 2.987,3.88 3.361,7.442C3.369,8.833 3.362,10.224 3.341,11.614C3.341,12.756 3.341,12.756 3.342,13.921C3.34,16.432 3.316,18.942 3.293,21.453C3.287,23.196 3.283,24.939 3.28,26.682C3.269,31.266 3.239,35.849 3.206,40.432C3.175,45.111 3.162,49.79 3.146,54.469C3.114,63.646 3.063,72.823 3,82C3.702,81.441 3.702,81.441 4.418,80.87C6.583,79.153 8.76,77.452 10.938,75.75C11.673,75.163 12.408,74.577 13.166,73.973C26.715,63.441 40.304,61.963 57,63C68.514,64.457 77.013,71.019 84.316,79.762C95.62,94.789 94.166,115.613 94.203,133.492C94.207,134.874 94.207,134.874 94.212,136.284C94.227,141.147 94.236,146.009 94.24,150.871C94.246,155.885 94.27,160.898 94.298,165.911C94.317,169.78 94.322,173.649 94.324,177.518C94.327,179.368 94.335,181.217 94.348,183.066C94.365,185.646 94.363,188.225 94.356,190.804C94.366,191.564 94.375,192.323 94.384,193.106C94.349,197.585 93.793,200.457 91,204C87.363,206.425 84.619,206.323 80.41,206.336C79.669,206.343 78.928,206.349 78.165,206.356C76.599,206.366 75.033,206.371 73.467,206.371C71.074,206.375 68.683,206.411 66.291,206.449C64.768,206.455 63.245,206.459 61.723,206.461C61.009,206.475 60.295,206.49 59.56,206.504C56.457,206.476 54.404,206.274 51.811,204.514C49.224,200.922 49.452,197.553 49.502,193.291C49.496,192.412 49.491,191.534 49.485,190.628C49.476,188.721 49.476,186.813 49.484,184.906C49.496,181.877 49.485,178.85 49.468,175.822C49.441,170.473 49.435,165.125 49.437,159.777C49.439,151.246 49.424,142.715 49.381,134.184C49.371,131.217 49.38,128.251 49.39,125.284C49.378,113.641 49.169,103.222 43,93C43,92.34 41.886,90.464 41.313,90.188C39,89 39,89 36.719,87.457C32.009,84.933 27.199,85.253 22,86C19.614,87.06 17.7,88.239 15.621,89.809C14,91 9.95,93.85 9,96C8.505,96.639 8.01,97.279 7.5,97.938C3.667,103.207 3.711,108.147 3.729,114.424C3.721,115.837 3.721,115.837 3.713,117.279C3.703,119.32 3.697,121.36 3.695,123.401C3.691,126.628 3.675,129.855 3.654,133.083C3.599,142.257 3.568,151.431 3.544,160.605C3.528,166.22 3.498,171.834 3.459,177.448C3.447,179.589 3.441,181.731 3.441,183.872C3.441,186.859 3.423,189.847 3.401,192.834C3.405,193.723 3.41,194.611 3.415,195.527C3.405,196.34 3.395,197.153 3.385,197.99C3.382,199.049 3.382,199.049 3.379,200.13C2.88,202.593 1.953,203.46 0,205C-3.509,206.17 -6.717,206.199 -10.371,206.238C-11.09,206.246 -11.809,206.254 -12.549,206.263C-14.068,206.277 -15.587,206.287 -17.106,206.295C-19.426,206.312 -21.745,206.356 -24.064,206.4C-25.542,206.411 -27.019,206.419 -28.496,206.426C-29.534,206.452 -29.534,206.452 -30.592,206.479C-33.702,206.465 -35.625,206.268 -38.182,204.439C-40.611,201.181 -40.566,198.408 -40.528,194.498C-40.536,193.739 -40.545,192.981 -40.553,192.199C-40.576,189.655 -40.571,187.111 -40.565,184.567C-40.576,182.744 -40.588,180.92 -40.601,179.097C-40.632,174.142 -40.637,169.188 -40.636,164.233C-40.637,160.098 -40.649,155.963 -40.661,151.828C-40.688,142.072 -40.694,132.316 -40.686,122.56C-40.679,112.494 -40.712,102.429 -40.765,92.363C-40.809,83.723 -40.826,75.083 -40.821,66.442C-40.819,61.281 -40.827,56.12 -40.862,50.959C-40.894,46.104 -40.893,41.251 -40.865,36.396C-40.86,34.615 -40.868,32.834 -40.888,31.053C-41.031,17.602 -41.031,17.602 -38.473,13.629C-36.7,12.064 -35.131,11.006 -33,10C-32.163,9.543 -31.327,9.087 -30.465,8.616C-29.702,8.325 -28.939,8.034 -28.152,7.734C-27.3,7.402 -26.447,7.069 -25.568,6.727C-24.266,6.243 -24.266,6.243 -22.938,5.75C-22.065,5.412 -21.193,5.075 -20.295,4.727C-6.184,-0.7 -6.184,-0.7 0,0Z" style="fill:rgb(24,44,60);fill-rule:nonzero;"/>
        </g>
        <g transform="matrix(1,0,0,1,693.812,1009.31)">
            <path d="M0,0C8.52,7.167 17.136,17.291 18.426,28.816C18.679,37.136 16.596,45.012 10.773,51.258C-7.706,67.917 -31.547,68.877 -55.063,68.75L-59.957,68.736C-63.909,68.725 -67.861,68.708 -71.813,68.688C-71.052,70.59 -70.284,72.489 -69.512,74.387L-68.218,77.593C-63.841,87.232 -56.461,93.659 -46.914,98.008C-35.062,102.277 -21.202,102.611 -9.422,97.941C-0.008,93.418 6.707,87.255 11.188,77.688C13.563,77.563 13.563,77.563 16.188,77.688C18.886,80.386 18.549,81.916 18.625,85.688C18.413,98.516 10.116,108.216 1.258,116.805C-14.473,131.111 -33.49,134.594 -54.199,133.862C-71.872,132.68 -86.738,123.49 -98.543,110.832C-113.672,92.458 -116.152,69.595 -114.813,46.688C-112.775,29.483 -103.073,13.387 -89.938,2.375C-65.231,-16.212 -25.672,-18.984 0,0ZM-29.813,6.688C-41.378,0.141 -54.133,1.845 -63.375,11.313C-72.944,23.651 -74.791,38.558 -73.813,53.688C-72.813,54.688 -72.813,54.688 -70.515,54.817L-67.492,54.82L-64.18,54.824L-60.688,54.813C-48.756,54.853 -34.062,55.215 -24.25,47.242C-18.902,41.458 -18.105,34.531 -18.363,26.902C-19.45,19.123 -23.937,11.87 -29.813,6.688Z" style="fill:rgb(24,44,59);"/>
        </g>
        <g transform="matrix(1,0,0,1,1418,999)">
            <path d="M0,0C1.875,1.375 4.32,5 5,5C5.14,21.359 5.246,37.718 5.311,54.078C5.342,61.674 5.384,69.269 5.453,76.865C5.512,83.485 5.551,90.105 5.565,96.725C5.572,100.231 5.591,103.737 5.634,107.242C5.683,111.155 5.684,115.067 5.681,118.979C5.703,120.143 5.724,121.307 5.747,122.506C5.724,125.461 5.66,128.12 5,131C2.097,133.691 2.097,133.691 -1,135C-1.738,135.316 -2.475,135.632 -3.235,135.957C-3.923,136.169 -4.611,136.38 -5.32,136.598C-6.097,136.841 -6.875,137.083 -7.675,137.334C-8.484,137.574 -9.292,137.815 -10.125,138.063C-10.963,138.318 -11.801,138.573 -12.665,138.836C-15.106,139.572 -17.551,140.29 -20,141C-21.232,141.358 -22.465,141.717 -23.734,142.086C-28.637,143.415 -31.999,144.3 -37,143C-38.254,139.237 -38.107,135.728 -38.063,131.813C-38.058,131.063 -38.053,130.313 -38.049,129.541C-38.037,127.694 -38.019,125.847 -38,124L-40,124C-40,124.66 -41.495,127.485 -43,129C-45.802,131.587 -48.914,133.765 -52,136C-52.598,136.459 -53.196,136.918 -53.813,137.391C-64.764,145.115 -78.928,147.574 -92,146C-104.185,143.66 -113.781,138.094 -120.875,127.813C-128.502,114.305 -128.547,101.842 -128.391,86.73C-128.383,84.597 -128.377,82.463 -128.373,80.329C-128.358,74.754 -128.319,69.18 -128.275,63.605C-128.233,57.9 -128.215,52.195 -128.195,46.49C-128.153,35.327 -128.084,24.163 -128,13C-127.01,13 -125,11.68 -125,11C-95.535,-0.057 -95.535,-0.057 -88,1C-84.317,5.277 -84.57,9.61 -84.599,14.962C-84.589,16.302 -84.589,16.302 -84.578,17.669C-84.558,20.618 -84.559,23.567 -84.559,26.516C-84.547,28.572 -84.533,30.628 -84.519,32.685C-84.482,38.1 -84.462,43.515 -84.447,48.93C-84.422,57.583 -84.382,66.235 -84.325,74.888C-84.309,77.902 -84.305,80.915 -84.302,83.929C-84.292,85.793 -84.282,87.657 -84.271,89.521C-84.275,90.765 -84.275,90.765 -84.279,92.034C-84.209,100.051 -83.554,106.891 -78,113C-78,113.66 -61.427,120.67 -52.625,118.383C-46.778,115.802 -41.852,110.705 -39,105C-38.877,102.011 -38.814,99.043 -38.795,96.052C-38.785,95.125 -38.775,94.198 -38.765,93.244C-38.733,90.17 -38.708,87.097 -38.684,84.023C-38.663,81.896 -38.642,79.769 -38.621,77.642C-38.565,72.036 -38.516,66.43 -38.468,60.824C-38.418,55.107 -38.362,49.389 -38.307,43.672C-38.199,32.448 -38.098,21.224 -38,10C-30.991,7.131 -24.064,4.719 -16.75,2.75C-15.319,2.348 -15.319,2.348 -13.859,1.938C-4.86,-0.512 -4.86,-0.512 0,0Z" style="fill:rgb(24,44,59);fill-rule:nonzero;"/>
        </g>
        <g transform="matrix(1,0,0,1,1526,1002)">
            <path d="M0,0C1.232,0.433 1.232,0.433 2.488,0.875C7.92,3.166 11.627,7.238 15,12C16.78,17.339 17.085,23.831 15.246,29.203C13.38,32.57 11.115,35.734 8,38C5.582,38.012 5.582,38.012 3,37C1.64,34.739 0.63,32.721 -0.375,30.313C-4.533,21.254 -9.811,16.69 -19,13C-28.363,9.609 -38.919,9.844 -48,14C-51.247,16.717 -53.647,18.843 -54.344,23.102C-54.64,27.888 -54.409,31.304 -51.438,35.188C-44.533,42.065 -34.433,45.107 -25.486,48.47C-8.258,54.963 12.838,63.05 21,81C25.089,91.171 23.993,103.889 20.395,114.063C18.017,119.07 14.817,123.016 11,127C10.199,127.86 10.199,127.86 9.383,128.738C-3.317,140.964 -21.515,142.236 -38.125,142.313C-39.292,142.318 -40.46,142.324 -41.662,142.33C-56.125,142.21 -74.071,140.809 -85,130C-87.909,124.265 -87.368,117.717 -87.375,111.438C-87.412,109.752 -87.412,109.752 -87.449,108.033C-87.479,99.775 -87.479,99.775 -84.977,95.723C-84.324,95.154 -83.672,94.586 -83,94C-81.109,94.688 -81.109,94.688 -79,96C-78.016,98.25 -78.016,98.25 -77.25,101C-74.468,109.281 -69.223,116.648 -61.438,120.906C-49.752,126.15 -37.176,130.109 -24.438,125.75C-17.847,122.4 -17.847,122.4 -13,117C-12.212,111.538 -12.706,107.53 -16,103C-16,102.34 -17.011,100.497 -17.531,100.238C-19.514,99.244 -21.492,98.239 -23.469,97.23C-31.524,93.138 -39.6,89.346 -48,86C-63.506,79.822 -78.912,73.185 -86,57C-86.364,56.265 -86.727,55.53 -87.102,54.773C-90.004,45.813 -88.988,33.892 -85.254,25.383C-77.678,10.986 -66.682,3.185 -51.578,-2.203C-35.853,-7.063 -15.373,-5.611 0,0Z" style="fill:rgb(22,43,58);fill-rule:nonzero;"/>
        </g>
        <g transform="matrix(1,0,0,1,1013,1004)">
            <path d="M0,0C1.141,1.715 1.141,1.715 2.25,3.938C3.282,5.902 3,10.807 3,9C-6.886,13.001 -10.957,21.623 -15,31C-21.76,49.445 -21.681,74.901 -14.309,93.211C-7.811,107.059 0.167,114.66 14.004,120.992C16,122 16,122 18,124C18,129.122 16.726,132.971 13.238,136.676C5.623,141.181 -7.296,137.872 -15.438,136.023C-32.488,131.125 -44.756,118.36 -53.359,103.211C-62.243,85.824 -64.034,63.625 -58.391,44.918C-54.627,33.76 -48.981,23.689 -41,15C-40.47,14.419 -39.94,13.837 -39.395,13.238C-38,12 -36,10.68 -36,10C-12.4,-4.133 -12.4,-4.133 0,0Z" style="fill:rgb(25,45,60);fill-rule:nonzero;"/>
        </g>
    </g>
</svg>
