<?xml version="1.0" encoding="UTF-8" standalone="no"?>
<!DOCTYPE svg PUBLIC "-//W3C//DTD SVG 1.1//EN" "http://www.w3.org/Graphics/SVG/1.1/DTD/svg11.dtd">
<svg width="100%" height="100%" viewBox="0 0 216 238" version="1.1" xmlns="http://www.w3.org/2000/svg" xmlns:xlink="http://www.w3.org/1999/xlink" xml:space="preserve" xmlns:serif="http://www.serif.com/" style="fill-rule:evenodd;clip-rule:evenodd;stroke-linejoin:round;stroke-miterlimit:2;">
    <g transform="matrix(1,0,0,1,-25.06,-1)">
        <path d="M214.7,103.9C214.7,63.06 180.16,24.44 131.1,23.97C85.85,23.53 53.25,58.87 52.12,102.89C50.98,145.87 77.81,174.95 107.97,210.89C113.86,217.91 120.8,225.43 125.76,231.95C128.52,234.85 134.16,234.85 136.74,231.95C159.85,207.19 214.7,151.65 214.7,103.85L214.7,103.9Z" style="fill:url(#_Linear1);fill-rule:nonzero;"/>
    </g>
    <g transform="matrix(1,0,0,1,-25.06,-1)">
        <path d="M213.4,106.1C213.4,64.37 179.71,24.02 130.08,24.04C85.45,24.06 51.37,58.66 51.42,105.73C51.46,145.82 78.04,174.02 107.61,209.13C113.88,216.61 119.7,223.15 125.2,231.06C127.76,234.43 133.9,233.86 135.78,231.3C160.65,203.02 213.4,151.46 213.4,106.1Z" style="fill:white;fill-rule:nonzero;"/>
    </g>
    <g transform="matrix(1,0,0,1,-25.06,-1)">
        <path d="M207.2,105.9C207.2,67.79 174.77,29.95 130.44,29.95C86.96,29.95 56.61,65.71 56.61,106.67C56.61,144.19 81.56,170.64 108.78,203.75C114.69,210.82 121.13,218.11 127.96,225.87C129.86,227.92 131.33,226.41 132.54,224.75C157.86,195.87 207.2,150.35 207.2,105.95L207.2,105.9Z" style="fill:url(#_Linear2);fill-rule:nonzero;"/>
    </g>
    <g transform="matrix(1,0,0,1,-25.06,-1)">
        <path d="M67.39,96.53C67.39,88.22 68.16,74.81 72.09,68.51C74.62,65.71 77.02,66.78 78.52,71.18C79.9,75.31 80.89,79.74 82.18,81.33C83.78,82.81 85.64,80.61 86.89,71.02C87.92,62.76 88.23,55.5 93.75,54.49C96.74,54.26 97.94,57.13 98.51,61.18C100.47,74.83 101.21,95.08 101.21,108.31C101.21,111.92 99.64,113.56 97.07,113.44C94.81,113.33 93.67,112.01 93.79,108.61C93.96,103.72 93.96,95.18 92.91,86.82C92.48,84.48 89.89,83.91 89.27,87.26C88.35,92.27 87.75,98.96 86.54,104.6C85.84,107.39 82.69,107.61 81.79,106.08C80.15,103.16 79.21,93.87 77.72,90.12C76.88,88.63 74.9,88.75 74.62,90.53C73.78,95.82 75.17,106.15 75.62,110.84C75.91,113.88 74.72,115.41 72.23,115.29C69.01,115.12 68.18,113.28 67.8,109.22C67.46,105.76 67.39,101.6 67.39,96.53Z" style="fill:white;fill-rule:nonzero;"/>
    </g>
    <g transform="matrix(1,0,0,1,-25.06,-1)">
        <path d="M104.4,50.98C106.79,49.74 118.27,49.09 123.91,48.41C127.83,48.02 129.28,50.01 129.14,53.43L129.02,57.13C128.9,59.92 127.78,61.28 124.96,61.3L117.06,61.35C114.08,61.37 111.79,63.39 111.69,67.04C111.55,72.1 111.86,74.57 116.16,73.92C118.39,73.68 119.59,73.63 121.71,73.51C125.69,73.27 126.89,74.28 126.8,78.75C126.7,83.62 126.1,85.21 121.16,85.28L116.79,85.72C112.96,85.91 111.62,87.71 111.64,92.27C111.67,97.61 113.14,98.59 116.67,98.13C119.06,97.82 121.3,97.66 124.73,97.46C128.66,97.25 129.69,99.39 129.4,105.06C129.14,109.71 128.39,110.96 121.9,111.96C117.89,112.58 113.94,112.97 110.06,113.38C106.03,113.81 104.61,111.08 104.61,107.71C104.61,94.55 104.23,83.62 104.02,73.01C103.85,66.27 103.56,61.84 103.68,55.71C103.73,53.62 103.8,51.45 104.4,50.98Z" style="fill:white;fill-rule:nonzero;"/>
    </g>
    <g transform="matrix(1,0,0,1,-25.06,-1)">
        <path d="M135.2,48.17C138.34,46.08 142.71,48.12 144.5,53.93C146.12,59.63 146.87,66.03 148.46,71.91C149.33,74.93 151.87,74.28 152.76,70.74C154.01,65.71 154.93,59.19 155.62,54.43C156.32,50.16 159.73,49.27 161.78,49.92C164.32,50.74 165.5,52.61 166.01,57.3C167.55,70.18 167.91,84.83 167.96,99.25C167.96,101.96 168.17,103.91 167.93,106.64C167.67,109.52 165.83,110.48 163.99,110.48C161.16,110.48 160.34,108.56 160.46,105.21C160.77,97.68 160.96,90.71 160.17,82.83C159.71,80.21 156.96,79.26 156.31,82.71C155.21,88.27 154.17,94.06 153.36,98.84C152.71,101.96 150.2,102.27 148.77,100.91C147.18,99.37 146.21,86.06 144.21,80.82C143.13,78.71 140.38,78.61 140.17,81.51C139.32,88.87 140.02,97.11 140.76,106.1C140.86,109.59 138.78,111.37 136.57,111.37C134.13,111.37 132.86,108.97 133.07,105.43C133.14,92.03 133.96,78.11 134.06,66.06C134.11,59.99 133.46,51.07 135.2,48.17Z" style="fill:white;fill-rule:nonzero;"/>
    </g>
    <g transform="matrix(1,0,0,1,-25.06,-1)">
        <path d="M182.4,61.61C175.08,61.61 171.91,74.71 171.91,86.25C171.91,97.99 174.23,110.72 184.85,110.72C193.11,110.72 197.16,101.01 197.16,92.72C197.16,81.16 193.4,61.61 182.4,61.61ZM184.8,99.54C178.91,99.54 177.31,91.74 177.31,85.94C177.31,80.91 178.93,72.41 183.73,72.41C189.55,72.41 190.85,83.74 190.85,89.62C190.85,94.67 189.43,99.54 184.8,99.54Z" style="fill:white;fill-rule:nonzero;"/>
    </g>
    <g transform="matrix(1,0,0,1,-25.06,-1)">
        <path d="M103.7,121.1C106.19,119.11 111.18,120.98 110.98,126.89C110.52,137.17 110.38,147.32 110.5,157.19C110.59,163.64 111.66,167.74 116.57,167.57C122.68,167.36 122.22,153.17 121.36,133.14C121.1,127.79 120.38,122.36 124.09,119.54C126.65,118.46 128.91,119.95 129.18,124.08C129.8,134.24 130.08,144.14 130.01,154.84C129.89,165.19 128.77,181.74 118.89,181.74C109.75,181.74 105.58,172.93 104.88,164.12C104.06,153.7 103.8,142.29 103.43,127.16C103.36,124.74 102.98,122.34 103.7,121.1Z" style="fill:white;fill-rule:nonzero;"/>
    </g>
    <g transform="matrix(1,0,0,1,-25.06,-1)">
        <path d="M157.3,120.9C157.92,124.22 157.8,127.47 156.45,129.79C155.11,131.71 152.26,131.11 151.11,129.4C149.26,127.06 148.64,126.72 146.17,126.94C143.71,127.16 142.06,130.43 142.06,133.01C142.06,137.02 145.7,139.66 149.07,140.76C154.3,142.52 157.99,147.63 158.23,155.68C158.49,165.81 155.79,181.81 142.01,181.81C135.14,181.81 133.22,177.71 132.17,170.61C131.59,166.61 132.62,163.26 136.02,163.31C138.56,163.36 138.94,165.23 139.92,167.11C140.86,168.91 142.75,168.86 144.12,168.72C148.69,168.19 149.49,163.03 149.39,160.89C149.1,155.83 146.27,153.21 141.54,151.51C134.94,149.09 133.49,142.23 133.55,133.49C133.62,124.22 139.56,116.42 147.84,116.42C153.87,116.42 156.6,117.91 157.3,120.9Z" style="fill:white;fill-rule:nonzero;"/>
    </g>
    <g transform="matrix(1,0,0,1,-25.06,-1)">
        <path d="M162.2,118.2C163.4,116.37 167.3,116.13 168.4,117.29C170,118.82 169.4,122.7 169.04,125C168.4,129.35 168.28,134.4 171.71,134.79C177.05,135.36 180.16,134.4 181.08,126.16C181.5,122.29 180.78,116.59 186.5,116.07C191.31,115.63 192.08,118.05 192.08,120.93C192.08,123.45 187.2,146.89 186.31,150.59C185.69,153.31 182.05,158.44 179.78,158.44C178.06,158.44 178.66,155.89 179.38,151.68C180.3,146.39 180.61,143.9 175.67,143.9C170.86,143.9 169.18,147.25 169.06,152.16L168.78,165.1C168.66,169.96 165.7,171.76 163.71,171.76C161.45,171.76 160.9,169.7 161.21,165.65C162,155.76 162.29,146.1 162.2,134.1C162.1,128.62 161.6,120.29 162.2,118.2Z" style="fill:white;fill-rule:nonzero;"/>
    </g>
    <g transform="matrix(1,0,0,1,-25.06,-1)">
        <path d="M72.71,120.6C76.47,120.43 81.13,120.55 85.08,120.77C96.92,121.4 100.68,128.55 100.82,139.6C100.94,147.11 97.11,152.9 89.36,152.59C85.53,152.42 84.74,151.74 84.86,154.09C84.91,155.73 85.88,158 86.02,159.51C86.31,161.62 85.21,162.51 83.61,161.33C81.35,159.65 78.91,156.43 78.19,154.5C76.81,146.9 74.11,137.01 71.12,125.7C70.33,122.57 70.33,120.72 72.71,120.6ZM81.35,132.21C81.61,134.92 82.62,138.55 83.1,140.7C83.72,142.75 86.04,143.18 88.11,142.9C91.94,142.37 92.61,140.4 92.35,137.2C91.71,132.4 88.95,129.6 84.41,129.08C82.11,128.77 81.01,129.82 81.35,132.21Z" style="fill:white;fill-rule:nonzero;"/>
    </g>
    <g transform="matrix(1,0,0,1,-25.06,-1)">
        <path d="M86.07,152.7L86.19,153.08L88.75,153.17L88.71,152.44L86.07,152.7Z" style="fill:rgb(122,22,22);fill-rule:nonzero;"/>
    </g>
    <rect x="0.02" y="0.24" width="1.5" height="0.7" style="fill:rgb(244,130,81);fill-rule:nonzero;"/>
    <defs>
        <linearGradient id="_Linear1" x1="0" y1="0" x2="1" y2="0" gradientUnits="userSpaceOnUse" gradientTransform="matrix(162.69,0,0,162.69,52.01,128.9)"><stop offset="0" style="stop-color:black;stop-opacity:0.2"/><stop offset="1" style="stop-color:black;stop-opacity:0.01"/></linearGradient>
        <linearGradient id="_Linear2" x1="0" y1="0" x2="1" y2="0" gradientUnits="userSpaceOnUse" gradientTransform="matrix(150.64,0,0,150.64,56.66,128.2)"><stop offset="0" style="stop-color:rgb(196,0,0);stop-opacity:1"/><stop offset="1" style="stop-color:rgb(198,0,0);stop-opacity:1"/></linearGradient>
    </defs>
</svg>
